# xmcd
#
# Track frame offsets:
#	150
#	18495
#	32704
#	61260
#	76372
#	104948
#	123957
#	139872
#	157598
#	198044
#	212799
#	231288
#	249389
#	276064
#	311395
#	326774
#
# Disc length: 4699 seconds
#
# Revision: 1
# Processed by: cddbd v1.5.2PL0 Copyright (c) Steve Scherf et al.
# Submitted via: audiograbber 1.83.01
#
DISCID=d8125910
DTITLE=Various Artist - A complete introduction to Disco CD 2
DYEAR=2010
DGENRE=Disco
TTITLE0=Van McCoy and The Soul City Symphony - The hustle
TTITLE1=KC and The Sunshine Band - Get down tonight
TTITLE2=Gloria Gaynor - Never can say goodbye
TTITLE3=Linda Lewis - It's in his kiss
TTITLE4=Jackson 5 - Forever came today
TTITLE5=The Blackbyrds - Walking in rhythm
TTITLE6=Crown Heights Affair - Dreaming a dream
TTITLE7=Tavares - It only takes a minute
TTITLE8=Double Exporsure - Ten percent
TTITLE9=The Trammps - That's where the happy people go
TTITLE10=Candi Staton - Young hearts run free
TTITLE11=Kool and The Gang - Open sesame (Part 1)
TTITLE12=The Originals - Down to love town
TTITLE13=Diana Ross - Love hangover
TTITLE14=Vicki Sue Robinson - Turn the beat around
TTITLE15=Dr Buzzard's Original Savannah Band - Cherchez la femme - Se si bon
EXTD=
EXTT0=
EXTT1=
EXTT2=
EXTT3=
EXTT4=
EXTT5=
EXTT6=
EXTT7=
EXTT8=
EXTT9=
EXTT10=
EXTT11=
EXTT12=
EXTT13=
EXTT14=
EXTT15=
PLAYORDER=
